<svg width="30" height="30" viewBox="0 0 30 30" fill="none" xmlns="http://www.w3.org/2000/svg">
<g id="arrows-exchange">
<path id="Vector (Stroke)" fill-rule="evenodd" clip-rule="evenodd" d="M21.7872 4.37904C22.2654 3.87365 23.0407 3.87365 23.5189 4.37904L29.6413 10.8496C29.9915 11.2197 30.0963 11.7764 29.9068 12.2599C29.7172 12.7435 29.2707 13.0588 28.7755 13.0588H7.34696C6.67069 13.0588 6.12247 12.4794 6.12247 11.7647C6.12247 11.05 6.67069 10.4706 7.34696 10.4706H25.8193L21.7872 6.2092C21.309 5.70381 21.309 4.88442 21.7872 4.37904ZM0.0932443 17.7401C0.282772 17.2565 0.729264 16.9412 1.22452 16.9412H22.653C23.3293 16.9412 23.8775 17.5206 23.8775 18.2353C23.8775 18.95 23.3293 19.5294 22.653 19.5294H4.1807L8.2128 23.7908C8.69099 24.2962 8.69099 25.1156 8.2128 25.621C7.73461 26.1263 6.95931 26.1263 6.48111 25.621L0.35868 19.1504C0.0084789 18.7803 -0.096283 18.2236 0.0932443 17.7401Z" fill="#02A480"/>
</g>
</svg>
