<svg width="40" height="40" viewBox="0 0 40 40" fill="none" xmlns="http://www.w3.org/2000/svg">
<g id="close-outline">
<path id="Vector" d="M8.1899 32.2279C6.56623 30.6597 5.27113 28.7838 4.38018 26.7098C3.48922 24.6357 3.02026 22.405 3.00064 20.1477C2.98103 17.8905 3.41116 15.6519 4.26593 13.5627C5.12071 11.4734 6.38301 9.57536 7.97918 7.97918C9.57536 6.38301 11.4734 5.12071 13.5627 4.26593C15.6519 3.41116 17.8905 2.98103 20.1477 3.00064C22.405 3.02026 24.6357 3.48922 26.7098 4.38018C28.7838 5.27113 30.6597 6.56623 32.2279 8.1899C35.3246 11.3961 37.0381 15.6904 36.9994 20.1477C36.9606 24.6051 35.1728 28.8689 32.0208 32.0208C28.8689 35.1728 24.6051 36.9606 20.1477 36.9994C15.6904 37.0381 11.3961 35.3246 8.1899 32.2279ZM10.5869 29.8309C13.1388 32.3828 16.5999 33.8165 20.2089 33.8165C23.8179 33.8165 27.279 32.3828 29.8309 29.8309C32.3828 27.279 33.8165 23.8179 33.8165 20.2089C33.8165 16.5999 32.3828 13.1388 29.8309 10.5869C27.279 8.03499 23.8179 6.60134 20.2089 6.60134C16.5999 6.60134 13.1388 8.03499 10.5869 10.5869C8.03499 13.1388 6.60134 16.5999 6.60134 20.2089C6.60134 23.8179 8.03499 27.279 10.5869 29.8309ZM27.4169 15.3979L22.6059 20.2089L27.4169 25.0199L25.0199 27.4169L20.2089 22.6059L15.3979 27.4169L13.0009 25.0199L17.8119 20.2089L13.0009 15.3979L15.3979 13.0009L20.2089 17.8119L25.0199 13.0009L27.4169 15.3979Z" fill="#E79E2D"/>
</g>
</svg>
