<svg width="24" height="24" viewBox="-6 -6 24 24" fill="none" xmlns="http://www.w3.org/2000/svg">
<g id="user" clip-path="url(#clip0_46_458)">
<path id="Vector" d="M6 1.2C5.43273 1.2 4.8887 1.42125 4.48758 1.81508C4.08646 2.2089 3.86111 2.74305 3.86111 3.3C3.86111 3.85695 4.08646 4.3911 4.48758 4.78492C4.8887 5.17875 5.43273 5.4 6 5.4C6.56727 5.4 7.1113 5.17875 7.51242 4.78492C7.91354 4.3911 8.13889 3.85695 8.13889 3.3C8.13889 2.74305 7.91354 2.2089 7.51242 1.81508C7.1113 1.42125 6.56727 1.2 6 1.2ZM2.63889 3.3C2.63889 2.42479 2.993 1.58542 3.62334 0.966548C4.25367 0.347678 5.10858 0 6 0C6.89142 0 7.74633 0.347678 8.37666 0.966548C9.007 1.58542 9.36111 2.42479 9.36111 3.3C9.36111 4.17521 9.007 5.01458 8.37666 5.63345C7.74633 6.25232 6.89142 6.6 6 6.6C5.10858 6.6 4.25367 6.25232 3.62334 5.63345C2.993 5.01458 2.63889 4.17521 2.63889 3.3ZM0.5 10.2C0.5 9.40435 0.821924 8.64129 1.39495 8.07868C1.96798 7.51607 2.74517 7.2 3.55556 7.2H8.44444C9.25483 7.2 10.032 7.51607 10.605 8.07868C11.1781 8.64129 11.5 9.40435 11.5 10.2V12H0.5V10.2ZM3.55556 8.4C3.06933 8.4 2.60301 8.58964 2.25919 8.92721C1.91538 9.26477 1.72222 9.72261 1.72222 10.2V10.8H10.2778V10.2C10.2778 9.72261 10.0846 9.26477 9.74081 8.92721C9.39699 8.58964 8.93067 8.4 8.44444 8.4H3.55556Z" fill="#02A480"/>
</g>
<defs>
<clipPath id="clip0_46_458">
<rect width="12" height="12" fill="white"/>
</clipPath>
</defs>
</svg>
