<svg width="24" height="24" viewBox="-2 -2 24 24" fill="none" xmlns="http://www.w3.org/2000/svg">
<g id="search-line" opacity="1" clip-path="url(#clip0_46_344)">
<g id="Group">
<path id="Vector" fill-rule="evenodd" clip-rule="evenodd" d="M8.74997 1.66675C7.62046 1.66684 6.50735 1.93705 5.50351 2.45483C4.49967 2.9726 3.63421 3.72293 2.97933 4.64321C2.32445 5.56349 1.89914 6.62704 1.73889 7.74512C1.57864 8.8632 1.68809 10.0034 2.05812 11.0706C2.42814 12.1377 3.04801 13.101 3.866 13.8799C4.68399 14.6587 5.67639 15.2307 6.7604 15.5481C7.8444 15.8654 8.98859 15.919 10.0975 15.7042C11.2064 15.4894 12.2478 15.0126 13.135 14.3134L16.1783 17.3567C16.3355 17.5085 16.546 17.5925 16.7645 17.5906C16.983 17.5887 17.192 17.5011 17.3465 17.3466C17.501 17.1921 17.5886 16.9831 17.5905 16.7646C17.5924 16.5461 17.5084 16.3356 17.3566 16.1784L14.3133 13.1351C15.1366 12.0906 15.6493 10.8354 15.7926 9.51319C15.9358 8.19096 15.704 6.8551 15.1235 5.65849C14.543 4.46189 13.6374 3.45288 12.5102 2.74694C11.3831 2.041 10.0799 1.66666 8.74997 1.66675ZM3.3333 8.75008C3.3333 7.31349 3.90398 5.93574 4.91981 4.91992C5.93563 3.9041 7.31338 3.33341 8.74997 3.33341C10.1866 3.33341 11.5643 3.9041 12.5801 4.91992C13.596 5.93574 14.1666 7.31349 14.1666 8.75008C14.1666 10.1867 13.596 11.5644 12.5801 12.5802C11.5643 13.5961 10.1866 14.1667 8.74997 14.1667C7.31338 14.1667 5.93563 13.5961 4.91981 12.5802C3.90398 11.5644 3.3333 10.1867 3.3333 8.75008Z" fill="#02A480"/>
</g>
</g>
<defs>
<clipPath id="clip0_46_344">
<rect width="20" height="20" fill="white"/>
</clipPath>
</defs>
</svg>
