<svg width="30" height="30" viewBox="0 0 30 30" fill="none" xmlns="http://www.w3.org/2000/svg">
<path d="M20.431 0L19.7228 0.775232C18.137 2.5187 16.8297 3.29824 15.7416 3.80823C14.6535 4.31715 13.7391 4.46918 12.841 5.15599C11.8835 5.88918 10.492 7.29516 9.90585 9.80523C8.64932 10.0791 7.72959 10.56 7.00416 11.1864C6.28738 11.8053 5.74763 12.5094 5.08266 13.276C5.07726 13.2846 5.0859 13.3008 5.08266 13.3094C4.12838 14.4049 3.29393 15.5844 1.67469 16.2076L1 16.4772V28H21.5785C22.7583 27.9364 23.5766 27.1202 24.0743 26.3148C24.5708 25.5104 24.8461 24.6392 24.9853 23.9233C25.3437 22.099 25.9968 16.847 25.9968 16.847L26.0314 16.7467V16.6454C25.9968 15.9165 25.6967 15.2976 25.3222 14.724L26.5366 11.1196L28.4603 8.22134L29 7.44611L28.2908 6.80673L21.2071 0.67388L20.431 0ZM20.499 2.96507L26.1318 7.85152L24.6475 10.0403L24.5471 10.1427L24.5125 10.3109L23.5345 13.2081C23.0239 12.9978 22.4982 12.8501 21.9153 12.8717H21.8472L15.0335 12.9051H13.954V17.0831C13.8028 18.2584 13.1487 18.7134 12.3347 19.0379C12.0648 19.1468 12.0314 19.0875 11.795 19.1382V12.8727C11.6179 8.87581 13.0429 7.72536 14.1569 6.87466C14.4646 6.63853 15.3659 6.36574 16.6527 5.76303C17.7279 5.25735 19.0643 4.35057 20.499 2.96507ZM9.70399 12.2312C9.69967 12.476 9.62302 12.6485 9.63598 12.9051V21.5307H10.7155C10.7155 21.5307 11.8705 21.5178 13.1109 21.0251C14.3501 20.5323 15.8474 19.3786 16.113 17.3527V15.0615L21.9153 15.0281H21.9487C22.4226 15.0022 22.8875 15.1648 23.2415 15.4805C23.5956 15.7961 23.81 16.239 23.8378 16.7122C23.8335 16.7295 23.7839 17.1295 23.7709 17.2179H19.3515V19.3743H23.501C23.3866 20.2078 23.2819 20.7307 23.1632 21.5307H19.3515V23.6872H22.8264C22.6988 24.2088 22.4939 24.7085 22.2186 25.1697C21.9239 25.6495 21.6702 25.8306 21.4435 25.8436H3.15899V17.7904C4.90886 16.8632 5.99699 15.5294 6.70082 14.7251C7.43056 13.8906 7.93145 13.2587 8.42154 12.8382C8.74215 12.5644 9.24412 12.408 9.70399 12.2312Z" fill="#E79E2D"/>
<path d="M20.431 0L19.7228 0.775232C18.137 2.5187 16.8297 3.29824 15.7416 3.80823C14.6535 4.31715 13.7391 4.46918 12.841 5.15599C11.8835 5.88918 10.492 7.29516 9.90585 9.80523C8.64932 10.0791 7.72959 10.56 7.00416 11.1864C6.28738 11.8053 5.74763 12.5094 5.08266 13.276C5.07726 13.2846 5.0859 13.3008 5.08266 13.3094C4.12838 14.4049 3.29393 15.5844 1.67469 16.2076L1 16.4772V28H21.5785C22.7583 27.9364 23.5766 27.1202 24.0743 26.3148C24.5708 25.5104 24.8461 24.6392 24.9853 23.9233C25.3437 22.099 25.9968 16.847 25.9968 16.847L26.0314 16.7467V16.6454C25.9968 15.9165 25.6967 15.2976 25.3222 14.724L26.5366 11.1196L28.4603 8.22134L29 7.44611L28.2908 6.80673L21.2071 0.67388L20.431 0ZM20.499 2.96507L26.1318 7.85152L24.6475 10.0403L24.5471 10.1427L24.5125 10.3109L23.5345 13.2081C23.0239 12.9978 22.4982 12.8501 21.9153 12.8717H21.8472L15.0335 12.9051H13.954V17.0831C13.8028 18.2584 13.1487 18.7134 12.3347 19.0379C12.0648 19.1468 12.0314 19.0875 11.795 19.1382V12.8727C11.6179 8.87581 13.0429 7.72536 14.1569 6.87466C14.4646 6.63853 15.3659 6.36574 16.6527 5.76303C17.7279 5.25735 19.0643 4.35057 20.499 2.96507ZM9.70399 12.2312C9.69967 12.476 9.62302 12.6485 9.63598 12.9051V21.5307H10.7155C10.7155 21.5307 11.8705 21.5178 13.1109 21.0251C14.3501 20.5323 15.8474 19.3786 16.113 17.3527V15.0615L21.9153 15.0281H21.9487C22.4226 15.0022 22.8875 15.1648 23.2415 15.4805C23.5956 15.7961 23.81 16.239 23.8378 16.7122C23.8335 16.7295 23.7839 17.1295 23.7709 17.2179H19.3515V19.3743H23.501C23.3866 20.2078 23.2819 20.7307 23.1632 21.5307H19.3515V23.6872H22.8264C22.6988 24.2088 22.4939 24.7085 22.2186 25.1697C21.9239 25.6495 21.6702 25.8306 21.4435 25.8436H3.15899V17.7904C4.90886 16.8632 5.99699 15.5294 6.70082 14.7251C7.43056 13.8906 7.93145 13.2587 8.42154 12.8382C8.74215 12.5644 9.24412 12.408 9.70399 12.2312Z" fill="url(#paint0_linear_66_547)" fill-opacity="0.15"/>
<defs>
<linearGradient id="paint0_linear_66_547" x1="14.4222" y1="28" x2="29.3766" y2="13.4271" gradientUnits="userSpaceOnUse">
<stop stop-color="white" stop-opacity="0"/>
<stop offset="0.43752" stop-color="white"/>
<stop offset="1" stop-color="white" stop-opacity="0"/>
</linearGradient>
</defs>
</svg>
