<svg width="30" height="30" viewBox="0 0 30 30" fill="none" xmlns="http://www.w3.org/2000/svg">
<path fill-rule="evenodd" clip-rule="evenodd" d="M3.56957 4.57745C4.57514 3.56789 5.93983 3 7.36364 3H22.6364C24.0602 3 25.4249 3.56789 26.4304 4.57745C27.4359 5.58687 28 6.95511 28 8.38095V29.1405L20.0914 22.5238H7.36364C5.93983 22.5238 4.57514 21.9559 3.56957 20.9464C2.56414 19.9369 2 18.5687 2 17.1429V8.38095C2 6.95511 2.56414 5.58687 3.56957 4.57745ZM7.36364 5C6.47283 5 5.6177 5.35524 4.98659 5.98886C4.35534 6.62261 4 7.48299 4 8.38095V17.1429C4 18.0408 4.35534 18.9012 4.98659 19.535C5.6177 20.1686 6.47283 20.5238 7.36364 20.5238H20.8177L26 24.8595V8.38095C26 7.48299 25.6447 6.62261 25.0134 5.98886C24.3823 5.35524 23.5272 5 22.6364 5H7.36364ZM8.45455 9.57143H22.6364V11.5714H8.45455V9.57143ZM12.8182 13.9524H22.6364V15.9524H12.8182V13.9524Z" fill="#E79E2D"/>
<path fill-rule="evenodd" clip-rule="evenodd" d="M3.56957 4.57745C4.57514 3.56789 5.93983 3 7.36364 3H22.6364C24.0602 3 25.4249 3.56789 26.4304 4.57745C27.4359 5.58687 28 6.95511 28 8.38095V29.1405L20.0914 22.5238H7.36364C5.93983 22.5238 4.57514 21.9559 3.56957 20.9464C2.56414 19.9369 2 18.5687 2 17.1429V8.38095C2 6.95511 2.56414 5.58687 3.56957 4.57745ZM7.36364 5C6.47283 5 5.6177 5.35524 4.98659 5.98886C4.35534 6.62261 4 7.48299 4 8.38095V17.1429C4 18.0408 4.35534 18.9012 4.98659 19.535C5.6177 20.1686 6.47283 20.5238 7.36364 20.5238H20.8177L26 24.8595V8.38095C26 7.48299 25.6447 6.62261 25.0134 5.98886C24.3823 5.35524 23.5272 5 22.6364 5H7.36364ZM8.45455 9.57143H22.6364V11.5714H8.45455V9.57143ZM12.8182 13.9524H22.6364V15.9524H12.8182V13.9524Z" fill="url(#paint0_linear_66_536)" fill-opacity="0.15"/>
<defs>
<linearGradient id="paint0_linear_66_536" x1="14.5048" y1="27" x2="26.7911" y2="14.5065" gradientUnits="userSpaceOnUse">
<stop stop-color="white" stop-opacity="0"/>
<stop offset="0.43752" stop-color="white"/>
<stop offset="1" stop-color="white" stop-opacity="0"/>
</linearGradient>
</defs>
</svg>
