<svg width="30" height="30" viewBox="0 0 30 30" fill="none" xmlns="http://www.w3.org/2000/svg">
<path d="M28.75 8.125C28.75 6.30164 28.0257 4.55295 26.7364 3.26364C25.447 1.97433 23.6984 1.25 21.875 1.25C20.0516 1.25 18.303 1.97433 17.0136 3.26364C15.7243 4.55295 15 6.30164 15 8.125C15 9.94836 15.7243 11.697 17.0136 12.9864C18.303 14.2757 20.0516 15 21.875 15C23.6984 15 25.447 14.2757 26.7364 12.9864C28.0257 11.697 28.75 9.94836 28.75 8.125ZM21.875 3.75C22.0408 3.75 22.1997 3.81585 22.3169 3.93306C22.4342 4.05027 22.5 4.20924 22.5 4.375V7.5H25C25.1658 7.5 25.3247 7.56585 25.4419 7.68306C25.5592 7.80027 25.625 7.95924 25.625 8.125C25.625 8.29076 25.5592 8.44973 25.4419 8.56694C25.3247 8.68415 25.1658 8.75 25 8.75H21.875C21.7092 8.75 21.5503 8.68415 21.4331 8.56694C21.3158 8.44973 21.25 8.29076 21.25 8.125V4.375C21.25 4.20924 21.3158 4.05027 21.4331 3.93306C21.5503 3.81585 21.7092 3.75 21.875 3.75ZM25.625 15.335V20.9375L25.6175 21.1162C25.5726 21.6636 25.3235 22.174 24.9196 22.5462C24.5158 22.9183 23.9867 23.125 23.4375 23.125H6.5625L6.3825 23.1175C5.83537 23.0723 5.32524 22.8231 4.95335 22.4192C4.58146 22.0154 4.37502 21.4865 4.375 20.9375V11.7175L14.5625 17.08L14.6838 17.1325C14.806 17.1763 14.936 17.1943 15.0655 17.1853C15.195 17.1762 15.3213 17.1404 15.4362 17.08L18.4487 15.4938C17.7939 15.1888 17.1827 14.7978 16.6313 14.3313L15 15.1912L4.375 9.59875V9.0625L4.3825 8.8825C4.42767 8.33537 4.67692 7.82524 5.08076 7.45335C5.4846 7.08146 6.01351 6.87502 6.5625 6.875H13.845C13.945 6.23111 14.1221 5.60159 14.3725 5H6.5625L6.3325 5.00625C5.29649 5.065 4.32224 5.51796 3.60959 6.27221C2.89694 7.02646 2.49993 8.02483 2.5 9.0625V20.9375L2.50625 21.1675C2.565 22.2035 3.01796 23.1778 3.77221 23.8904C4.52646 24.6031 5.52483 25.0001 6.5625 25H23.4375L23.6675 24.9938C24.7035 24.935 25.6778 24.482 26.3904 23.7278C27.1031 22.9735 27.5001 21.9752 27.5 20.9375V13.9875C26.9423 14.5236 26.311 14.9774 25.625 15.335Z" fill="#E79E2D"/>
<path d="M28.75 8.125C28.75 6.30164 28.0257 4.55295 26.7364 3.26364C25.447 1.97433 23.6984 1.25 21.875 1.25C20.0516 1.25 18.303 1.97433 17.0136 3.26364C15.7243 4.55295 15 6.30164 15 8.125C15 9.94836 15.7243 11.697 17.0136 12.9864C18.303 14.2757 20.0516 15 21.875 15C23.6984 15 25.447 14.2757 26.7364 12.9864C28.0257 11.697 28.75 9.94836 28.75 8.125ZM21.875 3.75C22.0408 3.75 22.1997 3.81585 22.3169 3.93306C22.4342 4.05027 22.5 4.20924 22.5 4.375V7.5H25C25.1658 7.5 25.3247 7.56585 25.4419 7.68306C25.5592 7.80027 25.625 7.95924 25.625 8.125C25.625 8.29076 25.5592 8.44973 25.4419 8.56694C25.3247 8.68415 25.1658 8.75 25 8.75H21.875C21.7092 8.75 21.5503 8.68415 21.4331 8.56694C21.3158 8.44973 21.25 8.29076 21.25 8.125V4.375C21.25 4.20924 21.3158 4.05027 21.4331 3.93306C21.5503 3.81585 21.7092 3.75 21.875 3.75ZM25.625 15.335V20.9375L25.6175 21.1162C25.5726 21.6636 25.3235 22.174 24.9196 22.5462C24.5158 22.9183 23.9867 23.125 23.4375 23.125H6.5625L6.3825 23.1175C5.83537 23.0723 5.32524 22.8231 4.95335 22.4192C4.58146 22.0154 4.37502 21.4865 4.375 20.9375V11.7175L14.5625 17.08L14.6838 17.1325C14.806 17.1763 14.936 17.1943 15.0655 17.1853C15.195 17.1762 15.3213 17.1404 15.4362 17.08L18.4487 15.4938C17.7939 15.1888 17.1827 14.7978 16.6313 14.3313L15 15.1912L4.375 9.59875V9.0625L4.3825 8.8825C4.42767 8.33537 4.67692 7.82524 5.08076 7.45335C5.4846 7.08146 6.01351 6.87502 6.5625 6.875H13.845C13.945 6.23111 14.1221 5.60159 14.3725 5H6.5625L6.3325 5.00625C5.29649 5.065 4.32224 5.51796 3.60959 6.27221C2.89694 7.02646 2.49993 8.02483 2.5 9.0625V20.9375L2.50625 21.1675C2.565 22.2035 3.01796 23.1778 3.77221 23.8904C4.52646 24.6031 5.52483 25.0001 6.5625 25H23.4375L23.6675 24.9938C24.7035 24.935 25.6778 24.482 26.3904 23.7278C27.1031 22.9735 27.5001 21.9752 27.5 20.9375V13.9875C26.9423 14.5236 26.311 14.9774 25.625 15.335Z" fill="url(#paint0_linear_66_534)" fill-opacity="0.15"/>
<defs>
<linearGradient id="paint0_linear_66_534" x1="15.0833" y1="25" x2="27.7372" y2="11.3709" gradientUnits="userSpaceOnUse">
<stop stop-color="white" stop-opacity="0"/>
<stop offset="0.43752" stop-color="white"/>
<stop offset="1" stop-color="white" stop-opacity="0"/>
</linearGradient>
</defs>
</svg>
