<svg width="20" height="20" viewBox="0 0 20 20" fill="none" xmlns="http://www.w3.org/2000/svg">
<g clip-path="url(#clip0_75_287)">
<path fill-rule="evenodd" clip-rule="evenodd" d="M12.5797 0.950031C11.8601 0.336811 10.9456 0 10.0002 0C9.0548 0 8.14031 0.336811 7.42074 0.950031L7.04692 1.26818C6.72856 1.53975 6.33263 1.70397 5.91552 1.73744L5.42537 1.77721C4.48284 1.85221 3.59786 2.26059 2.92919 2.92908C2.26052 3.59757 1.8519 4.48243 1.77664 5.42495L1.73786 5.91509C1.70467 6.3321 1.54081 6.72801 1.26959 7.0465L0.950454 7.42032C0.336971 8.13995 0 9.05465 0 10.0003C0 10.9459 0.336971 11.8606 0.950454 12.5802L1.2686 12.9541C1.54018 13.2724 1.70439 13.6684 1.73786 14.0855L1.77763 14.5756C1.85264 15.5182 2.26101 16.4031 2.9295 17.0718C3.59799 17.7405 4.48286 18.1491 5.42537 18.2244L5.91552 18.2631C6.33252 18.2963 6.72843 18.4602 7.04692 18.7314L7.42074 19.0495C8.14038 19.663 9.05507 20 10.0007 20C10.9463 20 11.861 19.663 12.5807 19.0495L12.9545 18.7314C13.273 18.4602 13.6689 18.2963 14.0859 18.2631L14.576 18.2234C15.5186 18.1484 16.4036 17.74 17.0722 17.0715C17.7409 16.403 18.1495 15.5181 18.2248 14.5756L18.2626 14.0855C18.296 13.6684 18.4602 13.2724 18.7318 12.9541L19.05 12.5793C19.6632 11.8597 20 10.9452 20 9.99979C20 9.05437 19.6632 8.13988 19.05 7.42032L18.7318 7.0465C18.4602 6.72814 18.296 6.33221 18.2626 5.91509L18.2238 5.42495C18.1488 4.48241 17.7404 3.59744 17.0719 2.92876C16.4034 2.26009 15.5186 1.85148 14.576 1.77622L14.0859 1.73744C13.6689 1.70425 13.273 1.54039 12.9545 1.26917L12.5797 0.950031ZM8.71122 2.46421C9.07097 2.15773 9.52811 1.9894 10.0007 1.9894C10.4733 1.9894 10.9304 2.15773 11.2902 2.46421L11.665 2.78335C12.3019 3.32614 13.0937 3.65422 13.9278 3.72088L14.418 3.76065C14.889 3.79836 15.3312 4.00258 15.6653 4.3367C15.9994 4.67082 16.2036 5.11301 16.2413 5.58402L16.2811 6.07417C16.3478 6.90829 16.6758 7.70013 17.2186 8.33698L17.5368 8.71179C17.8433 9.07154 18.0116 9.52869 18.0116 10.0013C18.0116 10.4739 17.8433 10.931 17.5368 11.2908L17.2186 11.6656C16.6758 12.3024 16.3478 13.0943 16.2811 13.9284L16.2413 14.4185C16.2036 14.8895 15.9994 15.3317 15.6653 15.6659C15.3312 16 14.889 16.2042 14.418 16.2419L13.9278 16.2817C13.0937 16.3483 12.3019 16.6764 11.665 17.2192L11.2902 17.5374C10.9304 17.8438 10.4733 18.0122 10.0007 18.0122C9.52811 18.0122 9.07097 17.8438 8.71122 17.5374L8.33641 17.2192C7.69956 16.6764 6.90772 16.3483 6.0736 16.2817L5.58345 16.2419C5.11226 16.2044 4.66984 16.0003 4.33551 15.6662C4.00119 15.332 3.79683 14.8897 3.75909 14.4185L3.71932 13.9284C3.65293 13.0944 3.32521 12.3026 2.78277 11.6656L2.46463 11.2908C2.15815 10.931 1.98983 10.4739 1.98983 10.0013C1.98983 9.52869 2.15815 9.07154 2.46463 8.71179L2.78277 8.33698C3.32557 7.70013 3.65365 6.90829 3.72031 6.07417L3.76008 5.58402C3.79757 5.11283 4.00168 4.67041 4.33583 4.33608C4.66997 4.00176 5.11228 3.7974 5.58345 3.75966L6.0736 3.72088C6.90772 3.65422 7.69956 3.32614 8.33641 2.78335L8.71122 2.46421ZM13.6862 7.72157C13.7812 7.62985 13.8569 7.52015 13.909 7.39885C13.9611 7.27755 13.9886 7.14709 13.9897 7.01508C13.9909 6.88307 13.9657 6.75216 13.9157 6.62997C13.8657 6.50779 13.7919 6.39678 13.6986 6.30344C13.6052 6.21009 13.4942 6.13626 13.372 6.08627C13.2498 6.03629 13.1189 6.01113 12.9869 6.01228C12.8549 6.01342 12.7244 6.04085 12.6031 6.09296C12.4818 6.14506 12.3721 6.2208 12.2804 6.31576L6.31519 12.281C6.22023 12.3727 6.14449 12.4824 6.09238 12.6037C6.04028 12.725 6.01285 12.8555 6.01171 12.9875C6.01056 13.1195 6.03571 13.2504 6.0857 13.3726C6.13569 13.4948 6.20952 13.6058 6.30287 13.6991C6.39621 13.7925 6.50722 13.8663 6.6294 13.9163C6.75159 13.9663 6.8825 13.9914 7.01451 13.9903C7.14652 13.9891 7.27698 13.9617 7.39828 13.9096C7.51958 13.8575 7.62928 13.7818 7.72099 13.6868L13.6862 7.72157ZM9.0065 7.51477C9.0065 7.91029 8.84938 8.28961 8.56971 8.56929C8.29003 8.84896 7.91071 9.00608 7.51519 9.00608C7.11967 9.00608 6.74035 8.84896 6.46068 8.56929C6.18101 8.28961 6.02389 7.91029 6.02389 7.51477C6.02389 7.11925 6.18101 6.73993 6.46068 6.46026C6.74035 6.18058 7.11967 6.02346 7.51519 6.02346C7.91071 6.02346 8.29003 6.18058 8.56971 6.46026C8.84938 6.73993 9.0065 7.11925 9.0065 7.51477ZM12.4862 13.9771C12.8817 13.9771 13.2611 13.82 13.5407 13.5403C13.8204 13.2606 13.9775 12.8813 13.9775 12.4858C13.9775 12.0903 13.8204 11.711 13.5407 11.4313C13.2611 11.1516 12.8817 10.9945 12.4862 10.9945C12.0907 10.9945 11.7114 11.1516 11.4317 11.4313C11.152 11.711 10.9949 12.0903 10.9949 12.4858C10.9949 12.8813 11.152 13.2606 11.4317 13.5403C11.7114 13.82 12.0907 13.9771 12.4862 13.9771Z" fill="#02A480"/>
</g>
<defs>
<clipPath id="clip0_75_287">
<rect width="20" height="20" fill="white"/>
</clipPath>
</defs>
</svg>
