<svg width="20" height="20" viewBox="0 0 20 20" fill="none" xmlns="http://www.w3.org/2000/svg">
<path d="M16.3 19H3.7C2.98392 19 2.29716 18.7155 1.79081 18.2092C1.28446 17.7028 1 17.0161 1 16.3V1.9C1 1.66131 1.09482 1.43239 1.2636 1.2636C1.43239 1.09482 1.66131 1 1.9 1H14.5C14.7387 1 14.9676 1.09482 15.1364 1.2636C15.3052 1.43239 15.4 1.66131 15.4 1.9V12.7H19V16.3C19 17.0161 18.7155 17.7028 18.2092 18.2092C17.7028 18.7155 17.0161 19 16.3 19ZM15.4 14.5V16.3C15.4 16.5387 15.4948 16.7676 15.6636 16.9364C15.8324 17.1052 16.0613 17.2 16.3 17.2C16.5387 17.2 16.7676 17.1052 16.9364 16.9364C17.1052 16.7676 17.2 16.5387 17.2 16.3V14.5H15.4ZM13.6 17.2V2.8H2.8V16.3C2.8 16.5387 2.89482 16.7676 3.0636 16.9364C3.23239 17.1052 3.46131 17.2 3.7 17.2H13.6ZM4.6 5.5H11.8V7.3H4.6V5.5ZM4.6 9.1H11.8V10.9H4.6V9.1ZM4.6 12.7H9.1V14.5H4.6V12.7Z" fill="#02A480"/>
</svg>
