<svg width="20" height="20" viewBox="0 0 20 20" fill="none" xmlns="http://www.w3.org/2000/svg">
<path fill-rule="evenodd" clip-rule="evenodd" d="M18 18C18 18.5523 17.5523 19 17 19L7 19C6.44771 19 6 18.5523 6 18C6 17.4477 6.44771 17 7 17L16 17L16 4C16 3.73478 15.8946 3.48043 15.7071 3.29289C15.5196 3.10536 15.2652 3 15 3L7 3C6.44771 3 6 2.55229 6 2C6 1.44772 6.44771 1 7 1L15 1C15.7956 1 16.5587 1.31607 17.1213 1.87868C17.6839 2.44129 18 3.20435 18 4L18 18ZM6.70711 12.2929C7.09763 12.6834 7.09763 13.3166 6.70711 13.7071C6.31658 14.0976 5.68342 14.0976 5.29289 13.7071L2.29289 10.7071C2.10536 10.5196 2 10.2652 2 10C2 9.73478 2.10536 9.48043 2.29289 9.29289L5.29289 6.29289C5.68342 5.90237 6.31658 5.90237 6.70711 6.29289C7.09763 6.68342 7.09763 7.31658 6.70711 7.70711L5.41421 9L13 9C13.5523 9 14 9.44772 14 10C14 10.5523 13.5523 11 13 11L5.41421 11L6.70711 12.2929Z" fill="#02A480"/>
</svg>
