<svg width="20" height="20" viewBox="0 0 20 20" fill="none" xmlns="http://www.w3.org/2000/svg">
<path fill-rule="evenodd" clip-rule="evenodd" d="M2.28105 2.28105C2.78115 1.78095 3.45942 1.5 4.16667 1.5H15C15.4862 1.5 15.9525 1.69315 16.2964 2.03697C16.6402 2.38079 16.8333 2.84711 16.8333 3.33333V4.84092C17.2584 4.87971 17.6587 5.06599 17.963 5.3703C18.3068 5.71412 18.5 6.18044 18.5 6.66667V9.29673C18.6061 9.36577 18.7055 9.44611 18.7964 9.53697C19.1402 9.88079 19.3333 10.3471 19.3333 10.8333V12.5C19.3333 12.9862 19.1402 13.4525 18.7964 13.7964C18.4525 14.1402 17.9862 14.3333 17.5 14.3333H15C14.2928 14.3333 13.6145 14.0524 13.1144 13.5523C12.6143 13.0522 12.3333 12.3739 12.3333 11.6667C12.3333 10.9594 12.6143 10.2811 13.1144 9.78105C13.6145 9.28095 14.2928 9 15 9H16.5V6.83333H4.16667C3.45942 6.83333 2.78115 6.55238 2.28105 6.05228C1.78095 5.55219 1.5 4.87391 1.5 4.16667C1.5 3.45942 1.78095 2.78115 2.28105 2.28105ZM14.8333 4.83333V3.5H4.16667C3.98986 3.5 3.82029 3.57024 3.69526 3.69526C3.57024 3.82029 3.5 3.98986 3.5 4.16667C3.5 4.34348 3.57024 4.51305 3.69526 4.63807C3.82029 4.7631 3.98986 4.83333 4.16667 4.83333H14.8333ZM15 11C14.8232 11 14.6536 11.0702 14.5286 11.1953C14.4036 11.3203 14.3333 11.4899 14.3333 11.6667C14.3333 11.8435 14.4036 12.013 14.5286 12.1381C14.6536 12.2631 14.8232 12.3333 15 12.3333H17.3333V11H15Z" fill="#02A480"/>
<path fill-rule="evenodd" clip-rule="evenodd" d="M2.5 3.16667C3.05228 3.16667 3.5 3.61438 3.5 4.16667V15.8333C3.5 16.0101 3.57024 16.1797 3.69526 16.3047C3.82029 16.4298 3.98986 16.5 4.16667 16.5H16.5V13.3333C16.5 12.781 16.9477 12.3333 17.5 12.3333C18.0523 12.3333 18.5 12.781 18.5 13.3333V16.6667C18.5 17.1529 18.3068 17.6192 17.963 17.963C17.6192 18.3068 17.1529 18.5 16.6667 18.5H4.16667C3.45942 18.5 2.78115 18.219 2.28105 17.719C1.78095 17.2189 1.5 16.5406 1.5 15.8333V4.16667C1.5 3.61438 1.94772 3.16667 2.5 3.16667Z" fill="#02A480"/>
</svg>
