<svg width="20" height="20" viewBox="0 0 20 20" fill="none" xmlns="http://www.w3.org/2000/svg">
<path d="M9.99991 6.4C10.9813 6.4 11.9224 6.77928 12.6163 7.45442C13.3103 8.12955 13.7001 9.04522 13.7001 10C13.7001 10.9548 13.3103 11.8705 12.6163 12.5456C11.9224 13.2207 10.9813 13.6 9.99991 13.6C9.01856 13.6 8.0774 13.2207 7.38348 12.5456C6.68956 11.8705 6.29972 10.9548 6.29972 10C6.29972 9.04522 6.68956 8.12955 7.38348 7.45442C8.0774 6.77928 9.01856 6.4 9.99991 6.4ZM9.99991 8.2C9.50924 8.2 9.03866 8.38964 8.6917 8.72721C8.34474 9.06477 8.14982 9.52261 8.14982 10C8.14982 10.4774 8.34474 10.9352 8.6917 11.2728C9.03866 11.6104 9.50924 11.8 9.99991 11.8C10.4906 11.8 10.9612 11.6104 11.3081 11.2728C11.6551 10.9352 11.85 10.4774 11.85 10C11.85 9.52261 11.6551 9.06477 11.3081 8.72721C10.9612 8.38964 10.4906 8.2 9.99991 8.2ZM8.14982 19C7.91856 19 7.7243 18.838 7.68729 18.622L7.34503 16.237C6.76225 16.012 6.26272 15.706 5.7817 15.346L3.47833 16.255C3.27482 16.327 3.02506 16.255 2.91405 16.057L1.06396 12.943C1.00734 12.8503 0.987382 12.7406 1.00781 12.6346C1.02824 12.5286 1.08766 12.4335 1.17496 12.367L3.12681 10.873L3.06206 10L3.12681 9.1L1.17496 7.633C1.08766 7.56652 1.02824 7.47138 1.00781 7.36537C0.987382 7.25935 1.00734 7.14973 1.06396 7.057L2.91405 3.943C3.02506 3.745 3.27482 3.664 3.47833 3.745L5.7817 4.645C6.26272 4.294 6.76225 3.988 7.34503 3.763L7.68729 1.378C7.7243 1.162 7.91856 1 8.14982 1H11.85C12.0813 1 12.2755 1.162 12.3125 1.378L12.6548 3.763C13.2376 3.988 13.7371 4.294 14.2181 4.645L16.5215 3.745C16.725 3.664 16.9748 3.745 17.0858 3.943L18.9359 7.057C19.0561 7.255 19.0006 7.498 18.8249 7.633L16.873 9.1L16.9378 10L16.873 10.9L18.8249 12.367C19.0006 12.502 19.0561 12.745 18.9359 12.943L17.0858 16.057C16.9748 16.255 16.725 16.336 16.5215 16.255L14.2181 15.355C13.7371 15.706 13.2376 16.012 12.6548 16.237L12.3125 18.622C12.2755 18.838 12.0813 19 11.85 19H8.14982ZM9.30613 2.8L8.96386 5.149C7.8538 5.374 6.87325 5.95 6.16097 6.751L3.9316 5.815L3.23782 6.985L5.18967 8.38C4.81965 9.43 4.81965 10.57 5.18967 11.62L3.22857 13.024L3.92235 14.194L6.17022 13.258C6.8825 14.05 7.8538 14.626 8.95461 14.842L9.29688 17.2H10.7029L11.0452 14.851C12.146 14.626 13.1173 14.05 13.8296 13.258L16.0775 14.194L16.7713 13.024L14.8102 11.629C15.1802 10.576 15.1802 9.433 14.8102 8.38L16.762 6.985L16.0682 5.815L13.8389 6.751C13.112 5.93229 12.126 5.37191 11.036 5.158L10.6937 2.8H9.30613Z" fill="#02A480"/>
</svg>
