<svg width="70" height="70" viewBox="0 0 70 70" fill="none" xmlns="http://www.w3.org/2000/svg">
<g clip-path="url(#clip0_88_655)">
<g opacity="0.2" clip-path="url(#clip1_88_655)" filter="url(#filter0_f_88_655)">
<path d="M35 49.8045L41.6013 43.2031H48.6719V21.3281H21.3281V43.2031H28.3987L35 49.8045ZM26.7969 26.7969H43.2031V37.7344H39.3362L35 42.0705L30.6638 37.7344H26.7969V26.7969ZM64.5036 28.2524C63.8574 12.2329 51.1663 0 35 0C18.8392 0 6.14277 12.228 5.49637 28.2524C2.21525 30.1427 0 33.6835 0 37.7344C0 43.7653 4.90656 48.6719 10.9375 48.6719H16.4062V26.7969H11.0862C12.4042 14.6375 22.4332 5.46875 35 5.46875C47.5668 5.46875 57.5958 14.6375 58.9137 26.7969H53.5938V48.6719H59.0625V50.8594C59.0625 55.3826 55.3826 59.0625 50.8594 59.0625H42.7328C41.6041 55.88 38.5647 53.5938 35 53.5938C30.4768 53.5938 26.7969 57.2737 26.7969 61.7969C26.7969 66.3201 30.4768 70 35 70C38.5647 70 41.6039 67.7138 42.7328 64.5312H50.8594C58.3982 64.5312 64.5312 58.398 64.5312 50.8594V47.2004C67.7972 45.3063 70 41.7739 70 37.7344C70 33.6835 67.7847 30.1427 64.5036 28.2524ZM10.9375 43.2031C7.92203 43.2031 5.46875 40.7498 5.46875 37.7344C5.46875 34.7189 7.92203 32.2656 10.9375 32.2656V43.2031ZM35 64.5312C33.4923 64.5312 32.2656 63.3046 32.2656 61.7969C32.2656 60.2891 33.4923 59.0625 35 59.0625C36.5077 59.0625 37.7344 60.2891 37.7344 61.7969C37.7344 63.3046 36.5077 64.5312 35 64.5312ZM59.0625 43.2031V32.2656C62.078 32.2656 64.5312 34.7189 64.5312 37.7344C64.5312 40.7498 62.078 43.2031 59.0625 43.2031Z" fill="#02A480"/>
</g>
<g clip-path="url(#clip2_88_655)">
<path d="M60.2888 29.2163C59.7349 15.4854 48.8568 5 35 5C21.1479 5 10.2652 15.4811 9.71117 29.2163C6.89879 30.8366 5 33.8716 5 37.3438C5 42.5131 9.20563 46.7188 14.375 46.7188H19.0625V27.9688H14.5025C15.6322 17.5464 24.2285 9.6875 35 9.6875C45.7715 9.6875 54.3678 17.5464 55.4975 27.9688H50.9375V46.7188H55.625V48.5938C55.625 52.4708 52.4708 55.625 48.5938 55.625H41.6281C40.6606 52.8971 38.0554 50.9375 35 50.9375C31.123 50.9375 27.9688 54.0917 27.9688 57.9688C27.9688 61.8458 31.123 65 35 65C38.0554 65 40.6605 63.0404 41.6281 60.3125H48.5938C55.0556 60.3125 60.3125 55.0555 60.3125 48.5938V45.4575C63.1119 43.8339 65 40.8062 65 37.3438C65 33.8716 63.1012 30.8366 60.2888 29.2163ZM14.375 42.0312C11.7903 42.0312 9.6875 39.9284 9.6875 37.3438C9.6875 34.7591 11.7903 32.6562 14.375 32.6562V42.0312ZM35 60.3125C33.7077 60.3125 32.6562 59.2611 32.6562 57.9688C32.6562 56.6764 33.7077 55.625 35 55.625C36.2923 55.625 37.3438 56.6764 37.3438 57.9688C37.3438 59.2611 36.2923 60.3125 35 60.3125ZM55.625 42.0312V32.6562C58.2097 32.6562 60.3125 34.7591 60.3125 37.3438C60.3125 39.9284 58.2097 42.0312 55.625 42.0312Z" fill="#02A480"/>
<path d="M45 25H25V39.5455H30.6522L35 45L39.3478 39.5455H45V25Z" stroke="#E79E2D" stroke-width="4"/>
<path d="M45 25H25V39.5455H30.6522L35 45L39.3478 39.5455H45V25Z" stroke="url(#paint0_linear_88_655)" stroke-opacity="0.15" stroke-width="4"/>
</g>
</g>
<defs>
<filter id="filter0_f_88_655" x="-4" y="-4" width="78" height="78" filterUnits="userSpaceOnUse" color-interpolation-filters="sRGB">
<feFlood flood-opacity="0" result="BackgroundImageFix"/>
<feBlend mode="normal" in="SourceGraphic" in2="BackgroundImageFix" result="shape"/>
<feGaussianBlur stdDeviation="2" result="effect1_foregroundBlur_88_655"/>
</filter>
<linearGradient id="paint0_linear_88_655" x1="34.5873" y1="45" x2="45.269" y2="34.5908" gradientUnits="userSpaceOnUse">
<stop stop-color="white" stop-opacity="0"/>
<stop offset="0.43752" stop-color="white"/>
<stop offset="1" stop-color="white" stop-opacity="0"/>
</linearGradient>
<clipPath id="clip0_88_655">
<rect width="70" height="70" fill="white"/>
</clipPath>
<clipPath id="clip1_88_655">
<rect width="70" height="70" fill="white"/>
</clipPath>
<clipPath id="clip2_88_655">
<rect width="60" height="60" fill="white" transform="translate(5 5)"/>
</clipPath>
</defs>
</svg>
