<svg width="70" height="70" viewBox="0 0 70 70" fill="none" xmlns="http://www.w3.org/2000/svg">
<g clip-path="url(#clip0_88_652)">
<g opacity="0.2" clip-path="url(#clip1_88_652)" filter="url(#filter0_f_88_652)">
<path d="M36.8766 36.9905L7.75688 66.1102L11.6238 70L40.7436 40.8574L36.8766 36.9905ZM29.1426 29.2564L0 58.3762L3.88992 62.2431L33.0096 33.1234L29.1426 29.2564ZM21.9944 0L32.4626 10.4683L3.20619 39.7247L7.07314 43.5917L40.1967 10.4683L35.197 5.46875H64.5312V34.803L59.5317 29.8035L26.4082 62.9267L30.2751 66.7937L59.5316 37.5372L70 48.0056V0H21.9944Z" fill="#02A480"/>
</g>
<g clip-path="url(#clip2_88_652)">
<path d="M23.8523 5L32.8251 13.9728L7.74817 39.0498L11.0627 42.3643L39.4543 13.9728L35.1689 9.6875H60.3125V34.8311L56.0272 30.5458L27.6356 58.9372L30.9501 62.2517L56.0271 37.1748L65 46.1477V5H23.8523Z" fill="#02A480"/>
<path d="M8.5 58.5L5 55L30 30L33.5 33.5L8.5 58.5Z" fill="#E79E2D"/>
<path d="M8.5 58.5L5 55L30 30L33.5 33.5L8.5 58.5Z" fill="url(#paint0_linear_88_652)" fill-opacity="0.15"/>
<path d="M15.5 65.5L12 62L37 37L40.5 40.5L15.5 65.5Z" fill="#E79E2D"/>
<path d="M15.5 65.5L12 62L37 37L40.5 40.5L15.5 65.5Z" fill="url(#paint1_linear_88_652)" fill-opacity="0.15"/>
</g>
</g>
<defs>
<filter id="filter0_f_88_652" x="-4" y="-4" width="78" height="78" filterUnits="userSpaceOnUse" color-interpolation-filters="sRGB">
<feFlood flood-opacity="0" result="BackgroundImageFix"/>
<feBlend mode="normal" in="SourceGraphic" in2="BackgroundImageFix" result="shape"/>
<feGaussianBlur stdDeviation="2" result="effect1_foregroundBlur_88_652"/>
</filter>
<linearGradient id="paint0_linear_88_652" x1="18.6619" y1="58.5" x2="33.8833" y2="43.6668" gradientUnits="userSpaceOnUse">
<stop stop-color="white" stop-opacity="0"/>
<stop offset="0.43752" stop-color="white"/>
<stop offset="1" stop-color="white" stop-opacity="0"/>
</linearGradient>
<linearGradient id="paint1_linear_88_652" x1="25.6619" y1="65.5" x2="40.8833" y2="50.6668" gradientUnits="userSpaceOnUse">
<stop stop-color="white" stop-opacity="0"/>
<stop offset="0.43752" stop-color="white"/>
<stop offset="1" stop-color="white" stop-opacity="0"/>
</linearGradient>
<clipPath id="clip0_88_652">
<rect width="70" height="70" fill="white"/>
</clipPath>
<clipPath id="clip1_88_652">
<rect width="70" height="70" fill="white"/>
</clipPath>
<clipPath id="clip2_88_652">
<rect width="60" height="60" fill="white" transform="translate(5 5)"/>
</clipPath>
</defs>
</svg>
