<svg width="70" height="70" viewBox="0 0 70 70" fill="none" xmlns="http://www.w3.org/2000/svg">
<g clip-path="url(#clip0_88_653)">
<g opacity="0.2" filter="url(#filter0_f_88_653)">
<path fill-rule="evenodd" clip-rule="evenodd" d="M21.3558 21.3558C17.7409 22.4545 14.4723 24.4708 11.8683 27.2083C9.26423 29.9457 7.41359 33.3109 6.4966 36.976C5.57962 40.6412 5.62756 44.4814 6.63575 48.1226C7.64394 51.7637 9.57801 55.0817 12.2496 57.7532C14.9211 60.4248 18.2391 62.3589 21.8802 63.367C25.5214 64.3752 29.3616 64.4232 33.0268 63.5062C36.6919 62.5892 40.0571 60.7386 42.7945 58.1345C45.532 55.5305 47.5483 52.2619 48.647 48.647C52.2619 47.5483 55.5305 45.532 58.1345 42.7945C60.7386 40.0571 62.5892 36.6919 63.5062 33.0268C64.4232 29.3616 64.3752 25.5214 63.367 21.8802C62.3589 18.2391 60.4248 14.9211 57.7532 12.2496C55.0817 9.57801 51.7637 7.64394 48.1226 6.63575C44.4814 5.62756 40.6412 5.57962 36.976 6.4966C33.3109 7.41359 29.9457 9.26423 27.2083 11.8683C24.4708 14.4723 22.4545 17.7409 21.3558 21.3558ZM27.997 20.4166C33.6978 20.4921 39.1438 22.7903 43.1752 26.8217C47.2066 30.8531 49.5048 36.2992 49.5804 41.9999C51.8358 40.8501 53.7872 39.1829 55.2749 37.1346C56.7627 35.0862 57.7446 32.7149 58.1405 30.2144C58.5363 27.714 58.3349 25.1553 57.5525 22.7476C56.7702 20.3399 55.4292 18.1514 53.6392 16.3612C51.8492 14.5709 49.661 13.2297 47.2534 12.447C44.8458 11.6644 42.2871 11.4626 39.7866 11.8581C37.2861 12.2536 34.9146 13.2352 32.8661 14.7227C30.8175 16.2102 29.1501 18.1613 27.9999 20.4166H27.997ZM27.7083 26.2499C23.4542 26.2515 19.3749 27.9421 16.3668 30.9501C13.3587 33.9582 11.6682 38.0376 11.6666 42.2916C11.6666 45.4643 12.6074 48.5658 14.3701 51.2039C16.1328 53.8419 18.6382 55.898 21.5694 57.1122C24.5006 58.3263 27.7261 58.644 30.8378 58.025C33.9496 57.4061 36.808 55.8782 39.0514 53.6348C41.2949 51.3913 42.8227 48.533 43.4417 45.4212C44.0607 42.3094 43.743 39.084 42.5288 36.1527C41.3147 33.2215 39.2586 30.7161 36.6205 28.9534C33.9825 27.1908 30.881 26.2499 27.7083 26.2499ZM27.7083 39.1241L24.5408 42.2916L27.7083 45.4591L30.8758 42.2916L27.7083 39.1241ZM24.6166 33.9674C25.4369 33.1481 26.5489 32.688 27.7083 32.688C28.8677 32.688 29.9796 33.1481 30.7999 33.9674L36.0324 39.197C36.439 39.6033 36.7615 40.0857 36.9815 40.6167C37.2016 41.1477 37.3148 41.7168 37.3148 42.2916C37.3148 42.8664 37.2016 43.4355 36.9815 43.9665C36.7615 44.4975 36.439 44.9799 36.0324 45.3862L30.8029 50.6158C30.3966 51.0223 29.9141 51.3448 29.3832 51.5649C28.8522 51.7849 28.283 51.8982 27.7083 51.8982C27.1335 51.8982 26.5644 51.7849 26.0334 51.5649C25.5024 51.3448 25.02 51.0223 24.6137 50.6158L19.3841 45.3833C18.9776 44.977 18.655 44.4946 18.435 43.9636C18.215 43.4326 18.1017 42.8635 18.1017 42.2887C18.1017 41.7139 18.215 41.1448 18.435 40.6138C18.655 40.0828 18.9776 39.6004 19.3841 39.1941L24.6166 33.9674Z" fill="#02A480"/>
</g>
<path fill-rule="evenodd" clip-rule="evenodd" d="M23.3049 23.305C20.2064 24.2468 17.4048 25.9751 15.1727 28.3214C12.9407 30.6678 11.3544 33.5522 10.5684 36.6938C9.78246 39.8354 9.82355 43.127 10.6877 46.248C11.5519 49.369 13.2097 52.2129 15.4996 54.5028C17.7895 56.7927 20.6334 58.4505 23.7544 59.3147C26.8754 60.1788 30.167 60.2199 33.3086 59.4339C36.4502 58.6479 39.3346 57.0617 41.681 54.8297C44.0273 52.5976 45.7556 49.7959 46.6974 46.6975C49.7958 45.7557 52.5975 44.0274 54.8295 41.6811C57.0616 39.3347 58.6478 36.4503 59.4338 33.3087C60.2198 30.1671 60.1787 26.8755 59.3145 23.7545C58.4504 20.6335 56.7926 17.7896 54.5027 15.4997C52.2128 13.2098 49.3688 11.552 46.2479 10.6878C43.1269 9.82367 39.8353 9.78258 36.6937 10.5686C33.5521 11.3546 30.6676 12.9408 28.3213 15.1728C25.9749 17.4049 24.2467 20.2066 23.3049 23.305ZM28.9974 22.5C33.8838 22.5647 38.5518 24.5346 42.0073 27.9901C45.4628 31.4456 47.4327 36.1136 47.4974 41C49.4306 40.0145 51.1032 38.5854 52.3784 36.8297C53.6537 35.074 54.4953 33.0414 54.8346 30.8981C55.1739 28.7549 55.0012 26.5617 54.3307 24.498C53.6601 22.4342 52.5107 20.5584 50.9764 19.0239C49.4421 17.4894 47.5665 16.3398 45.5028 15.6689C43.4392 14.9981 41.246 14.8251 39.1027 15.1641C36.9594 15.5031 34.9267 16.3445 33.1708 17.6195C31.415 18.8945 29.9857 20.5669 28.9999 22.5H28.9974ZM28.7499 27.5C25.1036 27.5013 21.607 28.9504 19.0286 31.5287C16.4503 34.1071 15.0012 37.6037 14.9999 41.25C14.9999 43.9695 15.8063 46.6279 17.3172 48.8891C18.828 51.1503 20.9755 52.9126 23.488 53.9533C26.0005 54.9941 28.7651 55.2663 31.4324 54.7358C34.0996 54.2053 36.5496 52.8957 38.4726 50.9727C40.3956 49.0498 41.7051 46.5997 42.2357 43.9325C42.7662 41.2653 42.4939 38.5006 41.4532 35.9881C40.4125 33.4756 38.6501 31.3282 36.389 29.8173C34.1278 28.3064 31.4694 27.5 28.7499 27.5Z" fill="#02A480"/>
<path d="M28.4438 34.8232L22.6166 41.0666C22.2665 41.4418 22.2572 42.0212 22.5951 42.4074L27.6914 48.2318C28.0604 48.6535 28.7039 48.6897 29.1179 48.3121L35.2887 42.6844C35.6858 42.3222 35.7256 41.7109 35.3788 41.3003L29.9388 34.8602C29.5522 34.4025 28.8526 34.3852 28.4438 34.8232Z" stroke="#E79E2D" stroke-width="4"/>
<path d="M28.4438 34.8232L22.6166 41.0666C22.2665 41.4418 22.2572 42.0212 22.5951 42.4074L27.6914 48.2318C28.0604 48.6535 28.7039 48.6897 29.1179 48.3121L35.2887 42.6844C35.6858 42.3222 35.7256 41.7109 35.3788 41.3003L29.9388 34.8602C29.5522 34.4025 28.8526 34.3852 28.4438 34.8232Z" stroke="url(#paint0_linear_88_653)" stroke-opacity="0.15" stroke-width="4"/>
</g>
<defs>
<filter id="filter0_f_88_653" x="-4" y="-4" width="78" height="78" filterUnits="userSpaceOnUse" color-interpolation-filters="sRGB">
<feFlood flood-opacity="0" result="BackgroundImageFix"/>
<feBlend mode="normal" in="SourceGraphic" in2="BackgroundImageFix" result="shape"/>
<feGaussianBlur stdDeviation="2" result="effect1_foregroundBlur_88_653"/>
</filter>
<linearGradient id="paint0_linear_88_653" x1="28.7111" y1="49" x2="36.6892" y2="41.7438" gradientUnits="userSpaceOnUse">
<stop stop-color="white" stop-opacity="0"/>
<stop offset="0.43752" stop-color="white"/>
<stop offset="1" stop-color="white" stop-opacity="0"/>
</linearGradient>
<clipPath id="clip0_88_653">
<rect width="70" height="70" fill="white"/>
</clipPath>
</defs>
</svg>
