<svg width="70" height="70" viewBox="0 0 70 70" fill="none" xmlns="http://www.w3.org/2000/svg">
<g clip-path="url(#clip0_88_654)">
<g opacity="0.2" clip-path="url(#clip1_88_654)" filter="url(#filter0_f_88_654)">
<path fill-rule="evenodd" clip-rule="evenodd" d="M5.4684 32.375H10.3906V37.625H5.4684C6.68084 52.127 17.873 63.3192 32.375 64.5316V59.6094H37.625V64.5316C52.127 63.3192 63.3192 52.127 64.5316 37.625H59.6094V32.375H64.5316C63.3192 17.873 52.127 6.68084 37.625 5.4684V10.3906H32.375V5.4684C17.873 6.68084 6.68084 17.873 5.4684 32.375ZM0.109375 35C0.109375 15.4563 15.4563 0.109375 35 0.109375C54.5437 0.109375 69.8906 15.4563 69.8906 35C69.8906 54.5437 54.5437 69.8906 35 69.8906C15.4563 69.8906 0.109375 54.5437 0.109375 35ZM32.375 27.7448V15.8594H37.625V25.4948L49.6652 20.3348L44.5052 32.375H54.1406V37.625H42.2552L40.8661 40.8662L37.625 42.2553V54.1406H32.375V44.5052L20.3347 49.6653L25.4948 37.625H15.8594V32.375H27.7447L29.1338 29.1339L32.375 27.7448ZM33.1321 33.1322L30.3303 39.6697L36.8678 36.8679L39.6696 30.3304L33.1321 33.1322Z" fill="#02A480"/>
</g>
<g clip-path="url(#clip2_88_654)">
<path fill-rule="evenodd" clip-rule="evenodd" d="M9.6872 32.75H13.9062V37.25H9.6872C10.7264 49.6803 20.3197 59.2736 32.75 60.3128V56.0938H37.25V60.3128C49.6803 59.2736 59.2736 49.6803 60.3128 37.25H56.0938V32.75H60.3128C59.2736 20.3197 49.6803 10.7264 37.25 9.6872V13.9062H32.75V9.6872C20.3197 10.7264 10.7264 20.3197 9.6872 32.75ZM5.09375 35C5.09375 18.2483 18.2483 5.09375 35 5.09375C51.7517 5.09375 64.9062 18.2483 64.9062 35C64.9062 51.7517 51.7517 64.9062 35 64.9062C18.2483 64.9062 5.09375 51.7517 5.09375 35Z" fill="#02A480"/>
<path fill-rule="evenodd" clip-rule="evenodd" d="M22.5 47.5L27 37H18.5V32.5H29L30 30L32.5 29V18.5H37.5V27L47.5 22.5L43 33H51.5V37.5H41L40 40L37.5 41V51.5H32.5V43L22.5 47.5ZM31 39L33 33.5L39 31L36.5 36.5L31 39Z" fill="#E79E2D"/>
<path fill-rule="evenodd" clip-rule="evenodd" d="M22.5 47.5L27 37H18.5V32.5H29L30 30L32.5 29V18.5H37.5V27L47.5 22.5L43 33H51.5V37.5H41L40 40L37.5 41V51.5H32.5V43L22.5 47.5ZM31 39L33 33.5L39 31L36.5 36.5L31 39Z" fill="url(#paint0_linear_88_654)" fill-opacity="0.15"/>
</g>
</g>
<defs>
<filter id="filter0_f_88_654" x="-4" y="-4" width="78" height="78" filterUnits="userSpaceOnUse" color-interpolation-filters="sRGB">
<feFlood flood-opacity="0" result="BackgroundImageFix"/>
<feBlend mode="normal" in="SourceGraphic" in2="BackgroundImageFix" result="shape"/>
<feGaussianBlur stdDeviation="2" result="effect1_foregroundBlur_88_654"/>
</filter>
<linearGradient id="paint0_linear_88_654" x1="34.319" y1="51.5" x2="51.9439" y2="34.3248" gradientUnits="userSpaceOnUse">
<stop stop-color="white" stop-opacity="0"/>
<stop offset="0.43752" stop-color="white"/>
<stop offset="1" stop-color="white" stop-opacity="0"/>
</linearGradient>
<clipPath id="clip0_88_654">
<rect width="70" height="70" fill="white"/>
</clipPath>
<clipPath id="clip1_88_654">
<rect width="70" height="70" fill="white"/>
</clipPath>
<clipPath id="clip2_88_654">
<rect width="60" height="60" fill="white" transform="translate(5 5)"/>
</clipPath>
</defs>
</svg>
