<svg width="50" height="17" viewBox="-11 0 50 17" fill="none" xmlns="http://www.w3.org/2000/svg">
<path d="M27.2446 15.3305C27.2446 15.2192 27.1351 15.2192 27.1351 15.1079C26.6975 14.2175 25.7127 13.1045 24.3997 11.8801C23.7432 11.3236 23.415 10.8784 23.1962 10.6558C22.8679 10.2106 22.8679 9.87672 22.9774 9.43152C23.0868 9.09761 23.5244 8.54109 24.2903 7.53938C24.728 6.98287 24.9468 6.64898 25.2751 6.31507C26.9163 4.08904 27.6822 2.64211 27.4634 1.97431L27.354 1.86301C27.2446 1.75171 27.1351 1.64041 26.9163 1.64041C26.6975 1.52911 26.3692 1.52911 26.041 1.64041H21.8832C21.7738 1.64041 21.7738 1.64041 21.5549 1.64041C21.4455 1.64041 21.3361 1.64041 21.3361 1.64041H21.2267H21.1173L21.0078 1.75171C20.8984 1.86301 20.8984 1.863 20.8984 1.97431C20.4608 3.19862 19.9137 4.20033 19.3666 5.31335C19.0384 5.86986 18.7101 6.42637 18.3819 6.87158C18.0536 7.31678 17.8348 7.65068 17.6159 7.87328C17.3971 8.09589 17.1783 8.20719 17.0689 8.42979C16.9595 8.54109 16.7406 8.6524 16.7406 8.5411C16.6312 8.5411 16.5218 8.54109 16.5218 8.42979C16.4124 8.31849 16.303 8.20719 16.1936 8.09588C16.0841 7.98458 16.0841 7.76198 15.9747 7.53938C15.9747 7.31677 15.9747 7.09417 15.9747 6.98287C15.9747 6.87157 15.9747 6.53767 15.9747 6.31507C15.9747 5.98117 15.9747 5.75856 15.9747 5.64726C15.9747 5.31335 15.9747 4.86816 15.9747 4.42295C15.9747 3.97775 15.9747 3.64383 15.9747 3.42123C15.9747 3.19862 15.9747 2.86472 15.9747 2.64212C15.9747 2.30822 15.9747 2.08561 15.9747 1.97431C15.9747 1.863 15.8653 1.64041 15.8653 1.52911C15.7559 1.41781 15.6465 1.3065 15.5371 1.1952C15.4276 1.0839 15.2088 1.0839 15.0994 0.972599C14.5523 0.861298 13.8958 0.75 13.1299 0.75C11.3793 0.75 10.1757 0.861305 9.73802 1.08391C9.51919 1.19521 9.30036 1.3065 9.19094 1.52911C8.97211 1.75171 8.97211 1.86301 9.08152 1.86301C9.6286 1.97432 10.0663 2.19691 10.2851 2.53081L10.3945 2.75343C10.5039 2.86473 10.5039 3.08732 10.6133 3.42123C10.7228 3.75513 10.7228 4.08904 10.7228 4.53424C10.7228 5.20205 10.7228 5.86987 10.7228 6.31507C10.7228 6.87158 10.6133 7.20547 10.6133 7.53938C10.6133 7.87328 10.5039 8.09589 10.3945 8.20719C10.2851 8.4298 10.2851 8.5411 10.1757 8.5411C10.1757 8.5411 10.1757 8.65239 10.0663 8.65239C9.95684 8.65239 9.84743 8.7637 9.6286 8.7637C9.51919 8.7637 9.30036 8.6524 9.19094 8.5411C8.97211 8.4298 8.75328 8.2072 8.64386 7.98459C8.42503 7.76199 8.20619 7.42808 7.98736 6.98287C7.76853 6.53766 7.44027 6.09247 7.22144 5.42466L7.00263 4.97946C6.89321 4.75686 6.67438 4.31164 6.45555 3.75514C6.23671 3.19863 6.01788 2.75343 5.79904 2.19692C5.68963 1.97432 5.58023 1.86301 5.47081 1.75171H5.36139C5.36139 1.75171 5.25196 1.64041 5.14254 1.64041C5.03313 1.64041 4.92372 1.52911 4.81431 1.52911H0.87533C0.437667 1.52911 0.218838 1.6404 0.109423 1.75171L0 1.86301C0 1.86301 0 1.97431 0 2.08561C0 2.19692 6.67658e-06 2.30821 0.109423 2.53081C0.656502 3.86643 1.31299 5.20205 1.96949 6.53767C2.62598 7.76199 3.28249 8.875 3.72015 9.65411C4.26723 10.4332 4.70489 11.2123 5.25197 11.8801C5.79904 12.548 6.12729 12.9932 6.2367 13.2158C6.45553 13.4384 6.56494 13.5497 6.67436 13.661L7.00263 13.9949C7.22146 14.2175 7.5497 14.5514 7.98736 14.8853C8.42503 15.2192 8.9721 15.5531 9.51918 15.887C10.0663 16.2209 10.7228 16.4435 11.3793 16.6661C12.1452 16.8887 12.8017 17 13.4582 16.8887H15.0994C15.4276 16.8887 15.6465 16.7774 15.8653 16.5548L15.9747 16.4435C15.9747 16.3322 16.0841 16.3322 16.0841 16.2209C16.0841 16.1096 16.0841 15.9983 16.0841 15.7757C16.0841 15.3305 16.0841 14.9966 16.1936 14.6627C16.303 14.3288 16.303 14.1062 16.4124 13.8836C16.5218 13.661 16.6312 13.5497 16.7406 13.4384C16.85 13.3271 16.9595 13.2158 16.9595 13.2158H17.0689C17.2877 13.1045 17.616 13.2158 17.8348 13.4384C18.163 13.661 18.4913 13.9949 18.7101 14.3288C18.9289 14.6627 19.2572 14.9966 19.6949 15.4418C20.1325 15.887 20.4608 16.2209 20.6796 16.3322L21.0078 16.5548C21.2267 16.6661 21.4455 16.7774 21.7738 16.8887C22.102 17 22.3208 17 22.5397 17L26.2598 16.8887C26.5881 16.8887 26.9163 16.7774 27.1351 16.6661C27.354 16.5548 27.4634 16.4435 27.4634 16.2209C27.4634 16.1096 27.4634 15.887 27.4634 15.7757C27.2445 15.5531 27.2446 15.4418 27.2446 15.3305Z" fill="white"/>
</svg>
