<svg width="59" height="23" viewBox="-13 0 59 23" fill="none" xmlns="http://www.w3.org/2000/svg">
<path d="M0.460295 10.7998L6.4953 13.011L8.84791 20.4487C8.9502 20.9512 9.56393 21.0517 9.97308 20.7502L13.3486 18.0365C13.6554 17.7349 14.1669 17.7349 14.576 18.0365L20.611 22.3583C21.0202 22.6599 21.6339 22.4588 21.7362 21.9563L26.2368 0.84945C26.3391 0.346906 25.8277 -0.155633 25.3163 0.0453843L0.460295 9.49321C-0.153432 9.69423 -0.153432 10.5988 0.460295 10.7998ZM8.54106 11.9054L20.4064 4.76929C20.611 4.66878 20.8156 4.97031 20.611 5.07082L10.8937 14.0161C10.5868 14.3176 10.2799 14.7197 10.2799 15.2222L9.97308 17.6344C9.97308 17.9359 9.46163 18.0365 9.35935 17.6344L8.13188 13.212C7.82502 12.7095 8.02962 12.1064 8.54106 11.9054Z" fill="white"/>
</svg>
