<svg width="304" height="33" viewBox="0 0 304 33" fill="none" xmlns="http://www.w3.org/2000/svg">
<path d="M27.1761 10.3333H23.3599C23.1342 9.23564 22.7392 8.2713 22.175 7.44034C21.621 6.60937 20.9439 5.91177 20.1437 5.34754C19.3538 4.77304 18.4766 4.34217 17.5123 4.05492C16.548 3.76767 15.5426 3.62405 14.4962 3.62405C12.5881 3.62405 10.8595 4.10622 9.31037 5.07055C7.77154 6.03488 6.54561 7.45573 5.63258 9.3331C4.7298 11.2105 4.27841 13.5136 4.27841 16.2424C4.27841 18.9713 4.7298 21.2744 5.63258 23.1518C6.54561 25.0291 7.77154 26.45 9.31037 27.4143C10.8595 28.3786 12.5881 28.8608 14.4962 28.8608C15.5426 28.8608 16.548 28.7172 17.5123 28.4299C18.4766 28.1427 19.3538 27.7169 20.1437 27.1527C20.9439 26.5782 21.621 25.8755 22.175 25.0445C22.7392 24.2033 23.1342 23.239 23.3599 22.1515H27.1761C26.8889 23.7622 26.3657 25.2035 25.6065 26.4756C24.8474 27.7477 23.9036 28.83 22.7751 29.7225C21.6466 30.6048 20.3797 31.2768 18.9742 31.7384C17.579 32.2 16.0863 32.4309 14.4962 32.4309C11.8084 32.4309 9.41809 31.7743 7.32529 30.4612C5.23248 29.148 3.58594 27.2809 2.38565 24.8598C1.18537 22.4388 0.585228 19.5663 0.585228 16.2424C0.585228 12.9186 1.18537 10.0461 2.38565 7.625C3.58594 5.20391 5.23248 3.3368 7.32529 2.02367C9.41809 0.71054 11.8084 0.0539742 14.4962 0.0539742C16.0863 0.0539742 17.579 0.284798 18.9742 0.746446C20.3797 1.20809 21.6466 1.88518 22.7751 2.7777C23.9036 3.65996 24.8474 4.73713 25.6065 6.00923C26.3657 7.27107 26.8889 8.71243 27.1761 10.3333ZM48.5589 14.5497V17.9351H34.771V14.5497H48.5589ZM269.855 32.2626C269.22 32.2626 268.676 32.041 268.221 31.5979C267.773 31.1492 267.551 30.6048 267.557 29.9646C267.551 29.3409 267.773 28.8074 268.221 28.3643C268.676 27.9211 269.22 27.6995 269.855 27.6995C270.456 27.6995 270.987 27.9211 271.447 28.3643C271.912 28.8074 272.147 29.3409 272.153 29.9646C272.147 30.3914 272.035 30.7799 271.816 31.1301C271.603 31.4747 271.324 31.7511 270.979 31.959C270.634 32.1614 270.259 32.2626 269.855 32.2626ZM281.843 32.2298C280.476 32.2298 279.305 31.959 278.331 31.4173C277.357 30.8702 276.61 30.1096 276.09 29.1357C275.571 28.1564 275.311 27.021 275.311 25.7298C275.311 24.4386 275.571 23.306 276.09 22.3321C276.61 21.3527 277.357 20.5922 278.331 20.0505C279.305 19.5034 280.476 19.2298 281.843 19.2298C283.08 19.2298 284.15 19.4541 285.052 19.9028C285.961 20.346 286.664 20.9752 287.162 21.7904C287.66 22.6002 287.911 23.5522 287.917 24.6465H283.715C283.655 23.9844 283.463 23.4811 283.14 23.1364C282.823 22.7862 282.413 22.6111 281.909 22.6111C281.515 22.6111 281.171 22.726 280.875 22.9558C280.58 23.1801 280.35 23.5221 280.186 23.9817C280.022 24.4358 279.939 25.0076 279.939 25.697C279.939 26.3864 280.022 26.9609 280.186 27.4205C280.35 27.8746 280.58 28.2165 280.875 28.4463C281.171 28.6707 281.515 28.7828 281.909 28.7828C282.243 28.7828 282.538 28.7062 282.796 28.553C283.053 28.3944 283.261 28.1646 283.419 27.8636C283.583 27.5572 283.682 27.1852 283.715 26.7475H287.917C287.9 27.8582 287.646 28.8266 287.153 29.6528C286.661 30.4735 285.963 31.1082 285.061 31.5568C284.163 32.0055 283.091 32.2298 281.843 32.2298ZM297.015 32.2298C295.647 32.2298 294.476 31.959 293.502 31.4173C292.528 30.8702 291.781 30.1096 291.262 29.1357C290.742 28.1564 290.482 27.021 290.482 25.7298C290.482 24.4386 290.742 23.306 291.262 22.3321C291.781 21.3527 292.528 20.5922 293.502 20.0505C294.476 19.5034 295.647 19.2298 297.015 19.2298C298.251 19.2298 299.321 19.4541 300.224 19.9028C301.132 20.346 301.835 20.9752 302.333 21.7904C302.831 22.6002 303.082 23.5522 303.088 24.6465H298.886C298.826 23.9844 298.634 23.4811 298.311 23.1364C297.994 22.7862 297.584 22.6111 297.08 22.6111C296.686 22.6111 296.342 22.726 296.046 22.9558C295.751 23.1801 295.521 23.5221 295.357 23.9817C295.193 24.4358 295.111 25.0076 295.111 25.697C295.111 26.3864 295.193 26.9609 295.357 27.4205C295.521 27.8746 295.751 28.2165 296.046 28.4463C296.342 28.6707 296.686 28.7828 297.08 28.7828C297.414 28.7828 297.71 28.7062 297.967 28.553C298.224 28.3944 298.432 28.1646 298.59 27.8636C298.755 27.5572 298.853 27.1852 298.886 26.7475H303.088C303.072 27.8582 302.817 28.8266 302.325 29.6528C301.832 30.4735 301.135 31.1082 300.232 31.5568C299.335 32.0055 298.262 32.2298 297.015 32.2298Z" fill="#02A480"/>
<path d="M99.5994 12.303H90.9205C90.8589 11.5849 90.6948 10.9335 90.428 10.3487C90.1716 9.76397 89.8125 9.26128 89.3509 8.84067C88.8995 8.4098 88.3506 8.08152 87.7043 7.85582C87.058 7.61987 86.3245 7.50189 85.5038 7.50189C84.0676 7.50189 82.8519 7.85069 81.8568 8.54829C80.8719 9.24589 80.123 10.2461 79.6101 11.549C79.1074 12.8519 78.8561 14.4163 78.8561 16.2424C78.8561 18.1711 79.1125 19.7869 79.6255 21.0897C80.1487 22.3823 80.9027 23.3569 81.8876 24.0135C82.8724 24.6598 84.0573 24.983 85.4422 24.983C86.2322 24.983 86.94 24.8855 87.5658 24.6906C88.1916 24.4854 88.7353 24.193 89.197 23.8134C89.6586 23.4339 90.0331 22.9774 90.3203 22.4439C90.6178 21.9002 90.8179 21.2898 90.9205 20.6127L99.5994 20.6742C99.4968 22.0079 99.1224 23.3672 98.4761 24.7521C97.8298 26.1268 96.9116 27.3989 95.7216 28.5684C94.5418 29.7277 93.0799 30.6612 91.3359 31.3691C89.5919 32.0769 87.5658 32.4309 85.2576 32.4309C82.3646 32.4309 79.7691 31.8102 77.4711 30.5689C75.1834 29.3276 73.3727 27.5015 72.0391 25.0907C70.7157 22.6798 70.054 19.7304 70.054 16.2424C70.054 12.7339 70.7311 9.77935 72.0852 7.37879C73.4394 4.96796 75.2655 3.14701 77.5635 1.91595C79.8614 0.674634 82.4261 0.0539742 85.2576 0.0539742C87.2478 0.0539742 89.079 0.325833 90.7512 0.869551C92.4234 1.41327 93.8904 2.20833 95.1522 3.25473C96.4141 4.29087 97.4297 5.5681 98.1991 7.08641C98.9685 8.60472 99.4353 10.3436 99.5994 12.303ZM105.648 32V0.484846H119.251C121.59 0.484846 123.637 0.910588 125.391 1.76207C127.145 2.61356 128.51 3.83949 129.484 5.43987C130.459 7.04024 130.946 8.95865 130.946 11.1951C130.946 13.452 130.443 15.355 129.438 16.9041C128.443 18.4532 127.043 19.6227 125.237 20.4126C123.442 21.2026 121.344 21.5975 118.943 21.5975H110.818V14.9498H117.22C118.225 14.9498 119.082 14.8267 119.79 14.5805C120.508 14.324 121.057 13.9188 121.436 13.3648C121.826 12.8108 122.021 12.0876 122.021 11.1951C122.021 10.2923 121.826 9.55879 121.436 8.99455C121.057 8.42006 120.508 7.99945 119.79 7.73271C119.082 7.45573 118.225 7.31723 117.22 7.31723H114.204V32H105.648ZM124.114 17.535L131.992 32H122.698L115.004 17.535H124.114ZM133.986 0.484846H143.527L149.682 13.2879H149.928L156.084 0.484846H165.624L154.052 22.09V32H145.558V22.09L133.986 0.484846ZM170.58 32V0.484846H184.183C186.522 0.484846 188.569 0.946494 190.323 1.86979C192.077 2.79308 193.442 4.09083 194.417 5.76302C195.391 7.43521 195.878 9.38952 195.878 11.6259C195.878 13.8829 195.376 15.8372 194.37 17.4889C193.375 19.1405 191.975 20.4126 190.169 21.3052C188.374 22.1977 186.276 22.6439 183.876 22.6439H175.751V15.9962H182.152C183.157 15.9962 184.014 15.8218 184.722 15.473C185.44 15.114 185.989 14.6061 186.368 13.9496C186.758 13.293 186.953 12.5185 186.953 11.6259C186.953 10.7232 186.758 9.95375 186.368 9.31771C185.989 8.6714 185.44 8.17897 184.722 7.84043C184.014 7.49163 183.157 7.31723 182.152 7.31723H179.136V32H170.58ZM200.323 7.37879V0.484846H227.714V7.37879H218.234V32H209.802V7.37879H200.323ZM262.149 16.2424C262.149 19.7509 261.467 22.7106 260.103 25.1214C258.738 27.522 256.897 29.343 254.578 30.5843C252.26 31.8153 249.675 32.4309 246.823 32.4309C243.95 32.4309 241.355 31.8102 239.036 30.5689C236.728 29.3173 234.892 27.4912 233.527 25.0907C232.173 22.6798 231.496 19.7304 231.496 16.2424C231.496 12.7339 232.173 9.77935 233.527 7.37879C234.892 4.96796 236.728 3.14701 239.036 1.91595C241.355 0.674634 243.95 0.0539742 246.823 0.0539742C249.675 0.0539742 252.26 0.674634 254.578 1.91595C256.897 3.14701 258.738 4.96796 260.103 7.37879C261.467 9.77935 262.149 12.7339 262.149 16.2424ZM253.347 16.2424C253.347 14.3548 253.096 12.7647 252.593 11.4721C252.101 10.1692 251.367 9.18434 250.393 8.51752C249.429 7.84043 248.238 7.50189 246.823 7.50189C245.407 7.50189 244.212 7.84043 243.237 8.51752C242.273 9.18434 241.539 10.1692 241.037 11.4721C240.544 12.7647 240.298 14.3548 240.298 16.2424C240.298 18.13 240.544 19.7253 241.037 21.0282C241.539 22.3208 242.273 23.3056 243.237 23.9827C244.212 24.6495 245.407 24.983 246.823 24.983C248.238 24.983 249.429 24.6495 250.393 23.9827C251.367 23.3056 252.101 22.3208 252.593 21.0282C253.096 19.7253 253.347 18.13 253.347 16.2424Z" fill="white"/>
</svg>
